<svg id="Capa_1" data-name="Capa 1" xmlns="http://www.w3.org/2000/svg" viewBox="0 0 935.03 152.74"><defs><style>.cls-1{fill:#211915;}.cls-2{fill-rule:evenodd;}</style></defs><title>wowzer</title><path class="cls-1" d="M209.33,31.8a3.24,3.24,0,0,1,.32,2.75q-9.33,35.43-15.8,60T183,135.32q-4.35,16.13-6.68,25t-3.5,13.15q-1.17,4.25-1.38,4.88t0,.21a3.28,3.28,0,0,1-3,2.12h-5.94a2.57,2.57,0,0,1-2.55-1.27q-.85-1.49-5.51-12.3-1.92-4.45-5.1-11.56t-7.63-17.29q-4.46-10.18-10.61-24t-14-31.82a1.25,1.25,0,0,0-1.06-.64H115c-.71,0-1.13.21-1.27.64L72,179a8.33,8.33,0,0,1-1,1.16,2.9,2.9,0,0,1-2,.53H63.07c-1.56,0-2.41-.56-2.55-1.69q-.63-1.92-4.67-17.82-1.91-6.8-4.66-17.19T44.4,118.35q-4-15.28-9.65-35.85T21.91,34.55a3.24,3.24,0,0,1,.32-2.75,2.76,2.76,0,0,1,2.44-1.06H44.82a2.19,2.19,0,0,1,1.59.74,6,6,0,0,1,1.17,1.59L69.85,119.2c0,.56.36.84,1.07.84H72a1.26,1.26,0,0,0,1.06-.63l38.39-88.67A2.72,2.72,0,0,1,114,29h3.82a2.76,2.76,0,0,1,2.54,1.48Q121,32,125.22,41.77q1.92,4.24,4.67,10.6t6.79,15.81q4,9.43,9.54,22.06T159,119.41c.14.42.56.63,1.27.63h.85c.43,0,.78-.28,1.06-.84Q167.65,98,173.27,75.81t10.92-42.74c.57-1.56,1.49-2.33,2.76-2.33h19.94A2.76,2.76,0,0,1,209.33,31.8Z" transform="translate(-21.76 -29.04)"/><path class="cls-1" d="M568.05,31.8a3.27,3.27,0,0,1,.32,2.75Q559,70,552.56,94.59t-10.81,40.73q-4.37,16.13-6.69,25t-3.5,13.15q-1.17,4.25-1.38,4.88t0,.21a3.26,3.26,0,0,1-3,2.12h-5.94a2.55,2.55,0,0,1-2.54-1.27q-.86-1.49-5.52-12.3-1.91-4.45-5.09-11.56t-7.63-17.29q-4.46-10.18-10.61-24t-14-31.82a1.25,1.25,0,0,0-1.06-.64h-1.06c-.71,0-1.14.21-1.28.64L430.69,179a7.63,7.63,0,0,1-.95,1.16,2.91,2.91,0,0,1-2,.53h-5.94c-1.56,0-2.4-.56-2.54-1.69q-.64-1.92-4.67-17.82-1.9-6.8-4.67-17.19t-6.78-25.66q-4-15.28-9.66-35.85T380.63,34.55A3.2,3.2,0,0,1,381,31.8a2.74,2.74,0,0,1,2.44-1.06h20.15a2.22,2.22,0,0,1,1.59.74,6.45,6.45,0,0,1,1.17,1.59l22.27,86.13c0,.56.35.84,1.06.84h1.06a1.24,1.24,0,0,0,1.06-.63l38.4-88.67A2.72,2.72,0,0,1,472.7,29h3.81a2.78,2.78,0,0,1,2.55,1.48q.63,1.49,4.88,11.25,1.9,4.24,4.66,10.6t6.79,15.81q4,9.43,9.55,22.06t12.73,29.17c.14.42.56.63,1.27.63h.85c.42,0,.77-.28,1.06-.84Q526.37,98,532,75.81t10.92-42.74c.56-1.56,1.49-2.33,2.76-2.33h19.94A2.77,2.77,0,0,1,568.05,31.8Z" transform="translate(-21.76 -29.04)"/><path class="cls-1" d="M684,32.22c1,1,1,2.41,0,4.24q-5.94,10-10.82,18.14t-11,18.67Q656,83.77,649.62,94.59l-34.37,58.12c-.29.29-.29.64,0,1.06a1.24,1.24,0,0,0,1.06.64l62.16.42a2.73,2.73,0,0,1,2.12,1,3.26,3.26,0,0,1,.84,2.23v18.24a3,3,0,0,1-.84,2,2.73,2.73,0,0,1-2.12,1H578.13a6.3,6.3,0,0,1-1.7-.32,4.09,4.09,0,0,1-1.8-1.06,3.56,3.56,0,0,1-1-2,4.38,4.38,0,0,1,.85-3q1.28-1.69,8.91-14.64,3.18-5.31,8.27-13.68t12.41-20.69q7.32-12.3,17.19-28.74t23-38.08a1,1,0,0,0,.11-1.17,1.18,1.18,0,0,0-1.17-.74H577.91a2.83,2.83,0,0,1-2-1,3.05,3.05,0,0,1-1-2.23V33.71a2.84,2.84,0,0,1,1-2,2.79,2.79,0,0,1,2-1H680.8A4.45,4.45,0,0,1,684,32.22Z" transform="translate(-21.76 -29.04)"/><path class="cls-1" d="M748,55.77V90.56a1.12,1.12,0,0,0,1.27,1.27h49a3.32,3.32,0,0,1,3,3v18a2.7,2.7,0,0,1-1,2.12,3,3,0,0,1-2,.85h-49a1.12,1.12,0,0,0-1.27,1.27V154.2a1.12,1.12,0,0,0,1.27,1.27h59.4a2.62,2.62,0,0,1,2.12,1.06,3.39,3.39,0,0,1,.85,2.12v17.61a3,3,0,0,1-.85,2,2.7,2.7,0,0,1-2.12,1H725.56a2.74,2.74,0,0,1-2.13-1,3,3,0,0,1-.85-2V33.71a3,3,0,0,1,.85-2,2.73,2.73,0,0,1,2.13-1h83.15a2.69,2.69,0,0,1,2.12,1,3,3,0,0,1,.85,2v17.6a3.35,3.35,0,0,1-.85,2.12,2.59,2.59,0,0,1-2.12,1.06h-59.4A1.13,1.13,0,0,0,748,55.77Z" transform="translate(-21.76 -29.04)"/><path class="cls-1" d="M850.93,33.71a3,3,0,0,1,.85-2,2.69,2.69,0,0,1,2.12-1H911a45.18,45.18,0,0,1,17.82,3.5,45.71,45.71,0,0,1,24.4,24.07,43.69,43.69,0,0,1,3.6,17.61,40.37,40.37,0,0,1-8.59,25.35,55.37,55.37,0,0,1-22.38,17.08c-.85.28-1.06.85-.64,1.69Q936,140.2,941.93,151.33t8.91,16.23l3.82,7a3.42,3.42,0,0,1,.11,3.18,2.9,2.9,0,0,1-2.87,1.49H929.2c-1.41,0-2.26-.49-2.54-1.49l-3.61-7q-1.27-2.53-3.39-6.68t-5.2-10.18q-3.08-6-7.11-14.11T898,120.89a1.25,1.25,0,0,0-1.06-.63H877.65a1.12,1.12,0,0,0-1.27,1.27v54.73a2.69,2.69,0,0,1-1.06,2,3.19,3.19,0,0,1-2.12,1H853.9a2.7,2.7,0,0,1-2.12-1,3,3,0,0,1-.85-2Zm57.7,65.76a21.16,21.16,0,0,0,8.59-1.81,22.27,22.27,0,0,0,7.21-5,24.49,24.49,0,0,0,4.88-7.32,22.35,22.35,0,0,0,1.8-9,20.56,20.56,0,0,0-1.8-8.48,22.2,22.2,0,0,0-4.88-7,22.75,22.75,0,0,0-7.21-4.67,22.46,22.46,0,0,0-8.59-1.7H877.87a1.13,1.13,0,0,0-1.28,1.28V98.19a1.13,1.13,0,0,0,1.28,1.28Z" transform="translate(-21.76 -29.04)"/><path class="cls-1" d="M371.08,91.41a96.61,96.61,0,0,0-3.92-14.11,82.7,82.7,0,0,0-5.41-12,29.1,29.1,0,0,0-5.94-7.85,6.09,6.09,0,0,0-1.62-1l-16.55,20a25.67,25.67,0,0,1,3.11,5,51.22,51.22,0,0,1,3,7.42,77.17,77.17,0,0,1,2.12,8.38,44.2,44.2,0,0,1,.85,8.38,47.87,47.87,0,0,1-4,19.52,53.39,53.39,0,0,1-10.82,16A50.49,50.49,0,0,1,276.68,152a50.87,50.87,0,0,1-26.83-26.83,48.81,48.81,0,0,1-3.93-19.52A49.53,49.53,0,0,1,249.85,86a50.34,50.34,0,0,1,10.82-16.13,52.41,52.41,0,0,1,16-10.92,47.71,47.71,0,0,1,19.52-4,49,49,0,0,1,20,4.17l16.09-19.46a3.62,3.62,0,0,0-2.13-2.74A74.89,74.89,0,0,0,296.2,29a73.84,73.84,0,0,0-29.8,6,77.58,77.58,0,0,0-24.19,16.34A76.46,76.46,0,0,0,220,105.62a75,75,0,0,0,5.94,29.8,75.38,75.38,0,0,0,40.42,40.42,77.84,77.84,0,0,0,59.6,0,77.34,77.34,0,0,0,24.29-16.23,75.47,75.47,0,0,0,22.28-54A72.45,72.45,0,0,0,371.08,91.41Z" transform="translate(-21.76 -29.04)"/><path class="cls-2" d="M296.24,93.89c1.1-1.52,2.14-3.09,3.31-4.53a15.58,15.58,0,0,1,7.87-5.63c5.76-1.59,10.75,0,14.69,4.46,4.15,4.69,5.22,10.19,3.84,16.24a33.52,33.52,0,0,1-7.19,13.79,69.49,69.49,0,0,1-21.14,17.11,2.36,2.36,0,0,1-2.47.09c-9.54-5.15-17.8-11.78-23.94-20.81C268,109.94,266,104.8,266.1,99s4-13.12,11.13-15.27c5.12-1.53,9.64-.25,13.58,3.26a25.67,25.67,0,0,1,5.12,6.38C296,93.58,296.15,93.76,296.24,93.89Z" transform="translate(-21.76 -29.04)"/></svg>